<?xml version="1.0" encoding="utf-8"?>
<svg viewBox="92.56 182.725 119.328 74.504" width="119.328" height="74.504" xmlns="http://www.w3.org/2000/svg" xmlns:bx="https://boxy-svg.com">
  <defs>
    <filter id="drop-shadow-filter-0" color-interpolation-filters="sRGB" x="-500%" y="-500%" width="1000%" height="1000%" bx:pinned="true">
      <title>Somba-izquierda</title>
      <feGaussianBlur in="SourceAlpha" stdDeviation="1" result="gaussian-blur-0"/>
      <feOffset dx="-2" dy="2" in="gaussian-blur-0" result="offset-0"/>
      <feComponentTransfer result="offsetblur" in="offset-0">
        <feFuncA id="spread-ctrl" type="linear" slope="1"/>
      </feComponentTransfer>
      <feFlood flood-color="rgba(0,0,0,0.3)" result="flood-0"/>
      <feComposite in2="offsetblur" operator="in" in="flood-0" result="composite-0"/>
      <feMerge result="merge-0">
        <feMergeNode in="composite-0"/>
        <feMergeNode in="SourceGraphic"/>
      </feMerge>
    </filter>
  </defs>
  <path d="M 189.8 195.369 L 181.301 186.871 C 179.421 185.007 176.878 183.96 174.231 183.96 L 133.738 183.96 C 131.096 183.96 128.543 185.014 126.669 186.871 L 118.17 195.369 L 97.103 195.369 L 97.103 241.021 L 108.529 241.021 C 111.672 241.021 114.206 238.486 114.224 235.362 L 115.849 235.362 L 130.953 249.002 C 136.471 253.484 144.13 253.59 149.807 249.681 C 152.038 251.608 154.448 252.519 157.145 252.519 C 160.395 252.519 163.448 251.198 165.857 248.233 C 169.803 249.787 174.464 248.698 177.284 245.235 L 181.962 239.468 C 182.961 238.235 183.587 236.825 183.908 235.362 L 194.246 235.362 C 194.263 238.486 196.816 241.021 199.941 241.021 L 211.367 241.021 L 211.367 195.369 L 189.8 195.369 Z M 105.673 235.308 C 104.1 235.308 102.816 234.023 102.816 232.451 C 102.816 230.88 104.1 229.595 105.673 229.595 C 107.243 229.595 108.529 230.88 108.529 232.451 C 108.529 234.041 107.243 235.308 105.673 235.308 Z M 175.301 234.076 L 170.643 239.825 C 170.142 240.431 169.25 240.539 168.625 240.04 L 164.357 236.575 L 159.002 243.092 C 157.93 244.395 156.323 243.949 155.788 243.522 L 149.217 237.897 L 146.432 241.325 C 143.951 244.378 139.434 244.842 136.56 242.503 L 119.188 226.792 L 114.242 226.792 L 114.242 203.92 L 121.722 203.92 L 132.739 192.923 C 133.096 192.78 133.399 192.655 133.757 192.512 L 143.879 192.512 L 136.969 198.851 C 131.721 203.653 131.418 211.759 136.185 216.937 C 138.826 219.829 147.11 224.292 154.305 217.722 L 155.771 216.383 L 175.089 232.059 C 175.695 232.558 175.784 233.469 175.301 234.076 Z M 194.227 226.792 L 181.872 226.792 C 181.461 226.292 180.997 225.828 180.498 225.417 L 162.161 210.527 L 164.393 208.492 C 165.553 207.421 165.643 205.617 164.572 204.457 L 162.626 202.367 C 161.555 201.207 159.751 201.136 158.591 202.189 L 148.735 211.223 C 147.04 212.777 144.148 212.901 142.558 211.223 C 140.897 209.455 141.04 206.742 142.773 205.171 L 154.484 194.441 C 155.806 193.227 157.52 192.565 159.305 192.565 L 174.249 192.53 C 174.624 192.53 174.982 192.673 175.23 192.94 L 186.247 203.939 L 194.227 203.939 L 194.227 226.792 Z M 202.797 235.308 C 201.226 235.308 199.941 234.023 199.941 232.451 C 199.941 230.88 201.226 229.595 202.797 229.595 C 204.367 229.595 205.654 230.88 205.654 232.451 C 205.654 234.041 204.367 235.308 202.797 235.308 Z" style="fill: rgb(255, 255, 255); filter: url(#drop-shadow-filter-0);"/>
</svg>